<svg width="75" height="83" viewBox="0 0 75 83" fill="none" xmlns="http://www.w3.org/2000/svg">
<rect width="75" height="83" fill="#F70058"/>
<g clip-path="url(#clip0_39413_4)">
<path d="M55.3668 39.5776C55.3678 38.0048 54.9444 36.4612 54.1415 35.1108C53.3386 33.7603 52.1862 32.6535 50.8069 31.9079C49.4275 31.1623 47.8727 30.8059 46.3077 30.8765C44.7426 30.9471 43.2259 31.442 41.9187 32.3088C40.0424 30.6353 37.7561 29.4935 35.2947 29.0008C32.8334 28.5081 30.2857 28.6822 27.9135 29.5052C25.5414 30.3282 23.4303 31.7705 21.7972 33.6838C20.1641 35.5972 19.0679 37.9125 18.6213 40.392C16.4741 40.5852 14.4837 41.6021 13.0643 43.2311C11.6449 44.8601 10.9058 46.9758 11.0006 49.138C11.0955 51.3002 12.017 53.3424 13.5735 54.8398C15.1301 56.3372 17.2018 57.1746 19.3576 57.1776H48.6013C50.0815 57.1808 51.5294 56.7438 52.7623 55.9216C53.9952 55.0994 54.9579 53.9289 55.5288 52.558C56.0996 51.187 56.2531 49.6769 55.9699 48.2185C55.6866 46.76 54.9793 45.4184 53.9372 44.3632C54.8722 42.9439 55.3695 41.2792 55.3668 39.5776ZM46.7 34.072C47.6919 34.0724 48.6651 34.3426 49.5162 34.8541C50.3673 35.3655 51.0644 36.099 51.5333 36.9765C52.0022 37.854 52.2254 38.8427 52.1792 39.8374C52.133 40.8322 51.8191 41.7957 51.2708 42.6256C49.821 42.0479 48.2243 41.9548 46.7175 42.36C46.6059 39.6226 45.7057 36.9764 44.1261 34.7424C44.9155 34.3085 45.8 34.0782 46.7 34.072ZM48.6125 53.9776H19.3576C18.6686 53.9897 17.9841 53.8639 17.344 53.6076C16.7039 53.3513 16.1211 52.9695 15.6296 52.4847C15.1381 51.9998 14.7477 51.4215 14.4812 50.7835C14.2147 50.1455 14.0774 49.4606 14.0774 48.7688C14.0774 48.077 14.2147 47.3921 14.4812 46.7541C14.7477 46.1161 15.1381 45.5378 15.6296 45.0529C16.1211 44.568 16.7039 44.1863 17.344 43.9299C17.9841 43.6736 18.6686 43.5479 19.3576 43.56C19.4351 43.5623 19.5123 43.5703 19.5887 43.584L19.8628 43.6176C20.0751 43.6396 20.2897 43.6185 20.4937 43.5556C20.6978 43.4928 20.8872 43.3894 21.0507 43.2517C21.2142 43.114 21.3485 42.9446 21.4456 42.7538C21.5427 42.563 21.6006 42.3545 21.6159 42.1408C21.7652 40.0492 22.5066 38.0439 23.7529 36.3611C24.9991 34.6783 26.6984 33.388 28.6505 32.6421C30.6027 31.8962 32.7265 31.7258 34.7719 32.1509C36.8173 32.576 38.6991 33.5789 40.1959 35.0416C40.26 35.2666 40.3753 35.4736 40.5326 35.6463C40.69 35.819 40.8851 35.9527 41.1027 36.0368C42.0838 37.2413 42.7946 38.6441 43.1865 40.1496C43.5785 41.655 43.6423 43.2275 43.3738 44.76C43.3216 45.0787 43.3666 45.4058 43.5031 45.6984C43.6395 45.9909 43.8609 46.2351 44.1383 46.3989C44.4156 46.5627 44.7358 46.6384 45.0568 46.616C45.3777 46.5936 45.6844 46.4743 45.9366 46.2736C46.69 45.6583 47.6301 45.3196 48.6013 45.3136C49.1681 45.3136 49.7293 45.4256 50.2529 45.6434C50.7766 45.8611 51.2523 46.1803 51.6531 46.5826C52.0539 46.985 52.3718 47.4626 52.5887 47.9883C52.8056 48.514 52.9172 49.0774 52.9172 49.6464C52.9172 50.2154 52.8056 50.7788 52.5887 51.3045C52.3718 51.8301 52.0539 52.3078 51.6531 52.7101C51.2523 53.1125 50.7766 53.4316 50.2529 53.6494C49.7293 53.8671 49.1681 53.9792 48.6013 53.9792L48.6125 53.9776Z" fill="white"/>
<path d="M41.4103 28.888C41.5624 29.2755 41.859 29.5882 42.2372 29.7597C42.6153 29.9311 43.0451 29.9477 43.4352 29.8061C43.8254 29.6644 44.1451 29.3756 44.3265 29.001C44.5079 28.6264 44.5366 28.1955 44.4066 27.8L43.4216 25.08C43.3502 24.8825 43.2406 24.7011 43.0993 24.5461C42.958 24.391 42.7877 24.2655 42.598 24.1766C42.215 23.997 41.7766 23.9775 41.3793 24.1224C40.9819 24.2673 40.6582 24.5648 40.4793 24.9493C40.3004 25.3338 40.281 25.7739 40.4254 26.1728L41.4103 28.888Z" fill="white"/>
<path d="M60.7011 39.6401L57.8642 39.1361C57.4478 39.0625 57.0194 39.1579 56.6731 39.4014C56.3269 39.6449 56.0912 40.0165 56.0178 40.4345C55.9445 40.8525 56.0396 41.2826 56.2821 41.6302C56.5246 41.9778 56.8948 42.2145 57.3112 42.2881L60.148 42.7905C60.24 42.8077 60.3334 42.8163 60.4269 42.8161C60.8257 42.8159 61.2098 42.6656 61.5036 42.395C61.7974 42.1243 61.9794 41.753 62.0139 41.3542C62.0483 40.9554 61.9325 40.5582 61.6895 40.2408C61.4465 39.9235 61.0938 39.7092 60.7011 39.6401Z" fill="white"/>
<path d="M56.2768 34.84C56.5569 34.8404 56.8319 34.7658 57.0737 34.624L59.5663 33.184C59.9294 32.9704 60.1936 32.6212 60.3011 32.2127C60.4087 31.8042 60.351 31.3696 60.1405 31.0037C59.9301 30.6378 59.5841 30.3703 59.1779 30.2596C58.7717 30.1489 58.3385 30.204 57.9726 30.4128L55.48 31.8528C55.1762 32.0289 54.9387 32.3008 54.8045 32.6262C54.6702 32.9516 54.6467 33.3123 54.7375 33.6525C54.8283 33.9927 55.0284 34.2934 55.3067 34.5078C55.585 34.7222 55.926 34.8384 56.2768 34.8384V34.84Z" fill="white"/>
<path d="M49.9368 29.8512C50.1337 29.9228 50.3426 29.9547 50.5518 29.9452C50.7609 29.9357 50.9662 29.885 51.1558 29.7958C51.3453 29.7067 51.5156 29.5809 51.6567 29.4257C51.7979 29.2704 51.9072 29.0888 51.9784 28.8912L52.9634 26.1712C53.1022 25.7736 53.0792 25.337 52.8993 24.9564C52.7195 24.5757 52.3973 24.2816 52.0028 24.1379C51.6083 23.9942 51.1733 24.0126 50.7921 24.1889C50.411 24.3653 50.1145 24.6855 49.9671 25.08L48.9822 27.8C48.9106 27.9976 48.8785 28.2074 48.8877 28.4175C48.897 28.6276 48.9473 28.8337 49.036 29.0242C49.1247 29.2147 49.2499 29.3858 49.4044 29.5277C49.559 29.6696 49.7399 29.7795 49.9368 29.8512Z" fill="white"/>
</g>
<defs>
<clipPath id="clip0_39413_4">
<rect width="51" height="64" fill="white" transform="translate(11 15)"/>
</clipPath>
</defs>
</svg>
